# xmcd
#
# Track frame offsets:
#	150
#	13245
#	28785
#	45901
#	63079
#	81352
#	105405
#	119554
#	132633
#	143714
#	156572
#	174026
#	199212
#	214456
#	239858
#
# Disc length: 3480 seconds
#
# Revision: 0
# Processed by: cddbd v1.4PL0 Copyright (c) Steve Scherf et al.
# Submitted via: audiograbber 1.82.02
#
DISCID=dd0d960f
DTITLE=Various Artist - Box of the Blues Disc 3
DYEAR=2003
DGENRE=Blues
TTITLE0=Change in My Pocket - Anson Funderburgh and The Rockets
TTITLE1=Blue House - Marcia Ball
TTITLE2=Meanest Woman - Geoff Muldaur
TTITLE3=Make Some Changes - Andrew "Jr. Boy" Jones
TTITLE4=Down South Blues - Tarbox Ramblers
TTITLE5=How Long - Chris Duarte Group
TTITLE6=I'm the Toughest Girl Alive - Candye Kane
TTITLE7=Keep Your Lamp Trimmed and Burning - Corey Harris
TTITLE8=Frankie and Albert - Rory Block
TTITLE9=What That Means to Me - Duke And The Pleasure Kings Robillard
TTITLE10=Let Me Live - Roomful of Blues
TTITLE11=Lovin' Someone Else - Little Jimmy And The Memphis Soul Survivors King
TTITLE12=John Hardy - George Thorogood
TTITLE13=One Night Affair - The Smokin' Joe Kubek Band
TTITLE14=Shifting Sand - Michelle Wilson
EXTD=
EXTT0=
EXTT1=
EXTT2=
EXTT3=
EXTT4=
EXTT5=
EXTT6=
EXTT7=
EXTT8=
EXTT9=
EXTT10=
EXTT11=
EXTT12=
EXTT13=
EXTT14=
PLAYORDER=
